<?xml version="1.0" encoding="utf-8"?>
<!-- Generator: Adobe Illustrator 22.0.1, SVG Export Plug-In . SVG Version: 6.00 Build 0)  -->
<svg version="1.1" id="Capa_1" xmlns="http://www.w3.org/2000/svg" xmlns:xlink="http://www.w3.org/1999/xlink" x="0px" y="0px"
	 viewBox="0 0 176 152" style="enable-background:new 0 0 176 152;" xml:space="preserve">
<style type="text/css">
	.st0{fill:#20358B;}
	.st1{fill:#FFFFFF;}
</style>
<rect x="0" y="0.2" class="st0" width="176" height="152"/>
<g>
	<path class="st1" d="M57.1,39.8c-1.4,0-2.4,0.5-3.2,1.5s-1.1,2.5-1.1,4.3c0,3.8,1.4,5.7,4.3,5.7c1.2,0,2.7-0.3,4.4-0.9v3
		c-1.4,0.6-3,0.9-4.7,0.9c-2.5,0-4.4-0.8-5.7-2.3s-2-3.7-2-6.5c0-1.8,0.3-3.3,1-4.7s1.6-2.4,2.8-3.1s2.6-1.1,4.3-1.1
		c1.7,0,3.3,0.4,5,1.2l-1.2,3c-0.6-0.3-1.3-0.6-1.9-0.8S57.7,39.8,57.1,39.8z"/>
	<path class="st1" d="M74.1,54.1l-0.5-1.7h-0.2c-0.4,0.6-0.9,1.1-1.6,1.4s-1.5,0.5-2.4,0.5c-1.5,0-2.7-0.4-3.5-1.2s-1.2-2-1.2-3.6
		V41h3.6v7.7c0,0.9,0.2,1.7,0.5,2.1s0.9,0.7,1.6,0.7c1,0,1.7-0.3,2.2-1s0.7-1.8,0.7-3.3V41h3.6v13.1H74.1z"/>
	<path class="st1" d="M87.9,40.8c0.5,0,0.9,0,1.2,0.1l-0.3,3.4c-0.3-0.1-0.6-0.1-1.1-0.1c-1.1,0-2,0.3-2.7,0.9s-1,1.4-1,2.5v6.7
		h-3.6V41h2.7l0.5,2.2H84c0.4-0.7,1-1.3,1.6-1.8S87.1,40.8,87.9,40.8z"/>
	<path class="st1" d="M100.6,50.2c0,1.3-0.5,2.4-1.4,3.1s-2.3,1.1-4.2,1.1c-1,0-1.8-0.1-2.4-0.2s-1.3-0.3-1.9-0.6v-3
		c0.7,0.3,1.4,0.6,2.2,0.8s1.6,0.3,2.2,0.3c1.3,0,1.9-0.4,1.9-1.1c0-0.3-0.1-0.5-0.3-0.7s-0.5-0.4-0.9-0.6s-1-0.5-1.7-0.8
		c-1-0.4-1.7-0.8-2.2-1.2s-0.8-0.8-1-1.2s-0.3-1-0.3-1.7c0-1.2,0.5-2.1,1.4-2.7s2.2-1,3.8-1c1.6,0,3.1,0.3,4.6,1l-1.1,2.6
		c-0.7-0.3-1.3-0.5-1.8-0.7s-1.2-0.3-1.7-0.3c-1.1,0-1.6,0.3-1.6,0.9c0,0.3,0.2,0.6,0.5,0.8s1.1,0.6,2.2,1c1,0.4,1.8,0.8,2.3,1.2
		s0.8,0.8,1.1,1.2S100.6,49.6,100.6,50.2z"/>
	<path class="st1" d="M115.3,47.6c0,2.1-0.6,3.8-1.7,5s-2.7,1.8-4.7,1.8c-1.3,0-2.4-0.3-3.3-0.8s-1.7-1.3-2.2-2.4s-0.8-2.2-0.8-3.6
		c0-2.1,0.6-3.8,1.7-5s2.7-1.8,4.7-1.8c1.3,0,2.4,0.3,3.3,0.8s1.7,1.3,2.2,2.4S115.3,46.2,115.3,47.6z M106.3,47.6
		c0,1.3,0.2,2.3,0.6,2.9s1.1,1,2.1,1c1,0,1.6-0.3,2.1-1s0.6-1.6,0.6-2.9c0-1.3-0.2-2.3-0.6-2.9s-1.1-1-2.1-1c-1,0-1.6,0.3-2.1,1
		S106.3,46.2,106.3,47.6z"/>
	<path class="st1" d="M127.4,50.2c0,1.3-0.5,2.4-1.4,3.1s-2.3,1.1-4.2,1.1c-1,0-1.8-0.1-2.4-0.2s-1.3-0.3-1.9-0.6v-3
		c0.7,0.3,1.4,0.6,2.2,0.8s1.6,0.3,2.2,0.3c1.3,0,1.9-0.4,1.9-1.1c0-0.3-0.1-0.5-0.3-0.7s-0.5-0.4-0.9-0.6s-1-0.5-1.7-0.8
		c-1-0.4-1.7-0.8-2.2-1.2s-0.8-0.8-1-1.2s-0.3-1-0.3-1.7c0-1.2,0.5-2.1,1.4-2.7s2.2-1,3.8-1c1.6,0,3.1,0.3,4.6,1l-1.1,2.6
		c-0.7-0.3-1.3-0.5-1.8-0.7s-1.2-0.3-1.7-0.3c-1.1,0-1.6,0.3-1.6,0.9c0,0.3,0.2,0.6,0.5,0.8s1.1,0.6,2.2,1c1,0.4,1.8,0.8,2.3,1.2
		s0.8,0.8,1.1,1.2S127.4,49.6,127.4,50.2z"/>
	<path class="st1" d="M79.3,83.2c-1.5,0-2.7-0.6-3.6-1.8s-1.3-2.9-1.3-5c0-2.1,0.4-3.8,1.3-5s2.1-1.8,3.7-1.8c1.6,0,2.9,0.6,3.8,1.9
		h0.1c-0.2-1-0.3-1.8-0.3-2.6v-4.2h3.6v18.2h-2.7l-0.7-1.7h-0.2C82.2,82.5,81,83.2,79.3,83.2z M80.6,80.3c0.9,0,1.6-0.3,2-0.8
		s0.7-1.4,0.7-2.7v-0.4c0-1.4-0.2-2.4-0.7-3s-1.1-0.9-2.1-0.9c-0.8,0-1.4,0.3-1.9,1S78,75.2,78,76.4c0,1.3,0.2,2.3,0.7,2.9
		S79.8,80.3,80.6,80.3z"/>
	<path class="st1" d="M96.3,83.2c-2.1,0-3.8-0.6-4.9-1.7s-1.8-2.8-1.8-4.9c0-2.2,0.5-3.9,1.6-5.1s2.6-1.8,4.6-1.8
		c1.9,0,3.3,0.5,4.3,1.6s1.5,2.5,1.5,4.4v1.7h-8.4c0,1,0.3,1.8,0.9,2.4s1.4,0.9,2.4,0.9c0.8,0,1.5-0.1,2.2-0.2s1.4-0.4,2.2-0.8v2.8
		c-0.6,0.3-1.3,0.5-2,0.7S97.3,83.2,96.3,83.2z M95.8,72.1c-0.8,0-1.4,0.2-1.8,0.7s-0.7,1.2-0.7,2h5c0-0.9-0.2-1.6-0.7-2
		S96.6,72.1,95.8,72.1z"/>
	<path class="st1" d="M60.3,102.1H67v8.9c-1.1,0.4-2.1,0.6-3.1,0.8s-2,0.2-3,0.2c-2.6,0-4.6-0.8-5.9-2.3s-2-3.7-2-6.5
		c0-2.8,0.8-4.9,2.4-6.5s3.8-2.3,6.6-2.3c1.8,0,3.5,0.4,5.1,1.1l-1.2,2.9c-1.3-0.6-2.6-0.9-3.9-0.9c-1.6,0-2.8,0.5-3.8,1.6
		s-1.4,2.5-1.4,4.3c0,1.9,0.4,3.3,1.1,4.3s1.9,1.5,3.3,1.5c0.8,0,1.5-0.1,2.3-0.2v-3.6h-3.2V102.1z"/>
	<path class="st1" d="M78.2,98.4c0.5,0,0.9,0,1.2,0.1l-0.3,3.4c-0.3-0.1-0.6-0.1-1.1-0.1c-1.1,0-2,0.3-2.7,0.9s-1,1.4-1,2.5v6.7
		h-3.6V98.6h2.7l0.5,2.2h0.2c0.4-0.7,1-1.3,1.6-1.8S77.3,98.4,78.2,98.4z"/>
	<path class="st1" d="M90.1,111.7l-0.7-1.8h-0.1c-0.6,0.8-1.2,1.3-1.9,1.6S86,112,84.9,112c-1.3,0-2.2-0.4-3-1.1s-1.1-1.7-1.1-3.1
		c0-1.4,0.5-2.4,1.5-3.1s2.4-1,4.4-1.1l2.3-0.1V103c0-1.3-0.7-2-2-2c-1,0-2.3,0.3-3.7,0.9l-1.2-2.4c1.5-0.8,3.2-1.2,5-1.2
		c1.8,0,3.1,0.4,4,1.1s1.4,1.9,1.4,3.5v8.7H90.1z M89,105.7l-1.4,0c-1,0-1.8,0.2-2.3,0.6s-0.8,0.9-0.8,1.6c0,1,0.6,1.5,1.7,1.5
		c0.8,0,1.5-0.2,2-0.7s0.7-1.1,0.7-1.9V105.7z"/>
	<path class="st1" d="M100.4,112c-1.5,0-2.7-0.6-3.6-1.8s-1.3-2.9-1.3-5c0-2.1,0.4-3.8,1.3-5s2.1-1.8,3.7-1.8c1.6,0,2.9,0.6,3.8,1.9
		h0.1c-0.2-1-0.3-1.8-0.3-2.6v-4.2h3.6v18.2h-2.7l-0.7-1.7h-0.2C103.3,111.3,102.1,112,100.4,112z M101.6,109.1c0.9,0,1.6-0.3,2-0.8
		s0.7-1.4,0.7-2.7v-0.4c0-1.4-0.2-2.4-0.7-3s-1.1-0.9-2.1-0.9c-0.8,0-1.4,0.3-1.9,1s-0.7,1.7-0.7,2.9s0.2,2.3,0.7,2.9
		S100.8,109.1,101.6,109.1z"/>
	<path class="st1" d="M123.3,105.2c0,2.1-0.6,3.8-1.7,5s-2.7,1.8-4.7,1.8c-1.3,0-2.4-0.3-3.3-0.8s-1.7-1.3-2.2-2.4s-0.8-2.2-0.8-3.6
		c0-2.1,0.6-3.8,1.7-5s2.7-1.8,4.7-1.8c1.3,0,2.4,0.3,3.3,0.8s1.7,1.3,2.2,2.4S123.3,103.8,123.3,105.2z M114.3,105.2
		c0,1.3,0.2,2.3,0.6,2.9s1.1,1,2.1,1c1,0,1.6-0.3,2.1-1s0.6-1.6,0.6-2.9c0-1.3-0.2-2.3-0.6-2.9s-1.1-1-2.1-1c-1,0-1.6,0.3-2.1,1
		S114.3,103.8,114.3,105.2z"/>
</g>
</svg>
