<?xml version="1.0" encoding="utf-8"?>
<!-- Generator: Adobe Illustrator 22.0.1, SVG Export Plug-In . SVG Version: 6.00 Build 0)  -->
<svg version="1.1" id="Capa_1" xmlns="http://www.w3.org/2000/svg" xmlns:xlink="http://www.w3.org/1999/xlink" x="0px" y="0px"
	 viewBox="0 0 694.5 289.1" style="enable-background:new 0 0 694.5 289.1;" xml:space="preserve">
<style type="text/css">
	.st0{fill:#D0D0D2;}
	.st1{fill:#00774C;}
</style>
<path class="st0" d="M0,0.3V286h497.2h82.5H600c52.6,0,95.3-42.7,95.3-95.3v-2v-87.1V0.3H0z"/>
<g>
	<path class="st1" d="M154.3,118.2h-36.2V55.3h36.2v10.9h-22.9v13.8h21.3V91h-21.3v16.2h22.9V118.2z"/>
	<path class="st1" d="M177.8,118.2l-18.3-48h13.7l9.3,27.4c1,3.5,1.7,6.7,1.9,9.8h0.3c0.1-2.8,0.8-6,1.9-9.8l9.2-27.4h13.7l-18.3,48
		H177.8z"/>
	<path class="st1" d="M247,118.2l-2.5-6.5h-0.3c-2.2,2.8-4.5,4.7-6.8,5.8c-2.3,1.1-5.4,1.6-9.1,1.6c-4.6,0-8.2-1.3-10.9-4
		c-2.6-2.6-4-6.4-4-11.3c0-5.1,1.8-8.9,5.3-11.3c3.6-2.4,8.9-3.8,16.1-4l8.3-0.3v-2.1c0-4.9-2.5-7.3-7.5-7.3
		c-3.8,0-8.4,1.2-13.5,3.5l-4.3-8.9c5.5-2.9,11.7-4.3,18.4-4.3c6.4,0,11.4,1.4,14.8,4.2c3.4,2.8,5.2,7.1,5.2,12.8v32H247z
		 M243.1,95.9l-5.1,0.2c-3.8,0.1-6.6,0.8-8.5,2.1c-1.9,1.3-2.8,3.2-2.8,5.8c0,3.7,2.1,5.5,6.4,5.5c3,0,5.5-0.9,7.3-2.6
		c1.8-1.7,2.7-4.1,2.7-7V95.9z"/>
	<path class="st1" d="M282.7,118.2h-13.1V51.3h13.1V118.2z"/>
	<path class="st1" d="M330.5,118.2l-1.8-6.1h-0.7c-1.4,2.2-3.4,4-6,5.2s-5.5,1.8-8.8,1.8c-5.6,0-9.9-1.5-12.8-4.5
		c-2.9-3-4.3-7.4-4.3-13V70.1h13.1v28.1c0,3.5,0.6,6.1,1.8,7.8c1.2,1.7,3.2,2.6,5.9,2.6c3.7,0,6.3-1.2,7.9-3.7s2.4-6.5,2.4-12.2
		V70.1h13.1v48H330.5z"/>
	<path class="st1" d="M384.8,118.2l-2.5-6.5h-0.3c-2.2,2.8-4.5,4.7-6.8,5.8c-2.3,1.1-5.4,1.6-9.1,1.6c-4.6,0-8.2-1.3-10.9-4
		c-2.7-2.6-4-6.4-4-11.3c0-5.1,1.8-8.9,5.3-11.3c3.6-2.4,8.9-3.8,16.1-4l8.3-0.3v-2.1c0-4.9-2.5-7.3-7.5-7.3
		c-3.8,0-8.4,1.2-13.5,3.5l-4.3-8.9c5.5-2.9,11.7-4.3,18.4-4.3c6.4,0,11.4,1.4,14.8,4.2c3.4,2.8,5.2,7.1,5.2,12.8v32H384.8z
		 M381,95.9l-5.1,0.2c-3.8,0.1-6.6,0.8-8.5,2.1c-1.9,1.3-2.8,3.2-2.8,5.8c0,3.7,2.1,5.5,6.4,5.5c3,0,5.5-0.9,7.3-2.6
		c1.8-1.7,2.7-4.1,2.7-7V95.9z"/>
	<path class="st1" d="M427,119c-15,0-22.4-8.2-22.4-24.6c0-8.2,2-14.4,6.1-18.7c4.1-4.3,9.9-6.5,17.5-6.5c5.6,0,10.5,1.1,15,3.3
		l-3.9,10.1c-2.1-0.8-4-1.5-5.8-2c-1.8-0.5-3.6-0.8-5.3-0.8c-6.8,0-10.2,4.8-10.2,14.5c0,9.4,3.4,14.1,10.2,14.1c2.5,0,4.9-0.3,7-1
		c2.1-0.7,4.3-1.7,6.4-3.2v11.2c-2.1,1.3-4.3,2.3-6.4,2.8C433,118.8,430.3,119,427,119z"/>
	<path class="st1" d="M452.2,57.7c0-4.3,2.4-6.4,7.1-6.4c4.8,0,7.1,2.1,7.1,6.4c0,2-0.6,3.6-1.8,4.7c-1.2,1.1-3,1.7-5.3,1.7
		C454.5,64.2,452.2,62,452.2,57.7z M465.8,118.2h-13.1v-48h13.1V118.2z"/>
	<path class="st1" d="M523.2,94.1c0,7.8-2.1,13.9-6.2,18.3c-4.1,4.4-9.9,6.6-17.2,6.6c-4.6,0-8.7-1-12.2-3s-6.2-4.9-8.1-8.7
		s-2.8-8.2-2.8-13.2c0-7.8,2-14,6.1-18.3c4.1-4.4,9.9-6.5,17.3-6.5c4.6,0,8.7,1,12.2,3c3.5,2,6.2,4.9,8.1,8.6
		C522.3,84.6,523.2,89,523.2,94.1z M490,94.1c0,4.8,0.8,8.4,2.3,10.8c1.6,2.4,4.1,3.7,7.6,3.7c3.5,0,6-1.2,7.5-3.6
		c1.5-2.4,2.3-6,2.3-10.8c0-4.8-0.8-8.3-2.3-10.7c-1.5-2.4-4.1-3.6-7.6-3.6c-3.5,0-6,1.2-7.6,3.5S490,89.3,490,94.1z M492.8,64.8
		v-1.2c4.9-5.7,8.3-10,10.1-12.9h14.7v0.9c-1.5,1.5-4,3.7-7.6,6.6c-3.6,2.9-6.4,5.1-8.4,6.6H492.8z"/>
	<path class="st1" d="M578.4,118.2h-13.1V90.1c0-3.5-0.6-6.1-1.8-7.8c-1.2-1.7-3.2-2.6-5.9-2.6c-3.7,0-6.3,1.2-7.9,3.7
		s-2.4,6.5-2.4,12.2v22.6H534v-48h10l1.8,6.1h0.7c1.5-2.3,3.5-4.1,6-5.3c2.6-1.2,5.5-1.8,8.7-1.8c5.6,0,9.8,1.5,12.7,4.5
		c2.9,3,4.3,7.4,4.3,13.1V118.2z"/>
	<path class="st1" d="M225.2,191.8c0,10.3-2.9,18.3-8.8,23.8s-14.4,8.3-25.5,8.3h-17.8v-62.8h19.7c10.3,0,18.2,2.7,23.9,8.1
		S225.2,182,225.2,191.8z M211.4,192.1c0-13.5-6-20.2-17.9-20.2h-7.1v40.9h5.7C205,212.8,211.4,205.9,211.4,192.1z"/>
	<path class="st1" d="M280.9,199.7c0,7.8-2.1,13.9-6.2,18.3c-4.1,4.4-9.9,6.6-17.2,6.6c-4.6,0-8.7-1-12.2-3s-6.2-4.9-8.1-8.7
		s-2.8-8.2-2.8-13.2c0-7.8,2-14,6.1-18.3c4.1-4.4,9.9-6.5,17.3-6.5c4.6,0,8.7,1,12.2,3c3.5,2,6.2,4.9,8.1,8.6
		C279.9,190.2,280.9,194.6,280.9,199.7z M247.6,199.7c0,4.8,0.8,8.4,2.3,10.8c1.6,2.4,4.1,3.7,7.6,3.7c3.5,0,6-1.2,7.5-3.6
		c1.5-2.4,2.3-6,2.3-10.8c0-4.8-0.8-8.3-2.3-10.7c-1.5-2.4-4.1-3.6-7.6-3.6c-3.5,0-6,1.2-7.6,3.5S247.6,194.9,247.6,199.7z"/>
	<path class="st1" d="M311.2,224.6c-15,0-22.4-8.2-22.4-24.6c0-8.2,2-14.4,6.1-18.7c4.1-4.3,9.9-6.5,17.5-6.5c5.6,0,10.5,1.1,15,3.3
		l-3.9,10.1c-2.1-0.8-4-1.5-5.8-2c-1.8-0.5-3.6-0.8-5.3-0.8c-6.8,0-10.2,4.8-10.2,14.5c0,9.4,3.4,14.1,10.2,14.1c2.5,0,4.9-0.3,7-1
		c2.1-0.7,4.3-1.7,6.4-3.2v11.2c-2.1,1.3-4.3,2.3-6.4,2.8C317.2,224.4,314.5,224.6,311.2,224.6z"/>
	<path class="st1" d="M358.7,224.6c-7.7,0-13.8-2.1-18.1-6.4c-4.4-4.3-6.5-10.3-6.5-18.1c0-8,2-14.3,6-18.7c4-4.4,9.6-6.6,16.7-6.6
		c6.8,0,12.1,1.9,15.9,5.8s5.7,9.2,5.7,16v6.4h-31c0.1,3.7,1.2,6.6,3.3,8.7c2.1,2.1,5,3.1,8.7,3.1c2.9,0,5.6-0.3,8.2-0.9
		s5.3-1.6,8.1-2.9v10.1c-2.3,1.1-4.7,2-7.3,2.6C365.6,224.3,362.4,224.6,358.7,224.6z M356.8,184.1c-2.8,0-5,0.9-6.5,2.6
		c-1.6,1.8-2.5,4.3-2.7,7.5H366c-0.1-3.2-0.9-5.7-2.5-7.5S359.6,184.1,356.8,184.1z"/>
	<path class="st1" d="M433.3,223.8h-13.1v-28.1c0-3.5-0.6-6.1-1.8-7.8c-1.2-1.7-3.2-2.6-5.9-2.6c-3.7,0-6.3,1.2-7.9,3.7
		s-2.4,6.5-2.4,12.2v22.6h-13.1v-48h10l1.8,6.1h0.7c1.5-2.3,3.5-4.1,6-5.3c2.6-1.2,5.5-1.8,8.7-1.8c5.6,0,9.8,1.5,12.7,4.5
		c2.9,3,4.3,7.4,4.3,13.1V223.8z"/>
	<path class="st1" d="M467,214.2c2.3,0,5-0.5,8.3-1.5v9.8c-3.3,1.5-7.3,2.2-12,2.2c-5.2,0-9.1-1.3-11.5-4c-2.4-2.6-3.6-6.6-3.6-11.9
		v-23.2h-6.3V180l7.2-4.4l3.8-10.1h8.4v10.2h13.4v9.8h-13.4v23.2c0,1.9,0.5,3.2,1.6,4.1C463.9,213.7,465.3,214.2,467,214.2z"/>
	<path class="st1" d="M506.7,224.6c-7.7,0-13.8-2.1-18.1-6.4c-4.4-4.3-6.5-10.3-6.5-18.1c0-8,2-14.3,6-18.7c4-4.4,9.6-6.6,16.7-6.6
		c6.8,0,12.1,1.9,15.9,5.8s5.7,9.2,5.7,16v6.4h-31c0.1,3.7,1.2,6.6,3.3,8.7c2.1,2.1,5,3.1,8.7,3.1c2.9,0,5.6-0.3,8.2-0.9
		s5.3-1.6,8.1-2.9v10.1c-2.3,1.1-4.7,2-7.3,2.6C513.6,224.3,510.5,224.6,506.7,224.6z M504.9,184.1c-2.8,0-5,0.9-6.5,2.6
		c-1.6,1.8-2.5,4.3-2.7,7.5H514c-0.1-3.2-0.9-5.7-2.5-7.5S507.6,184.1,504.9,184.1z"/>
</g>
</svg>
