<?xml version="1.0" encoding="utf-8"?>
<!-- Generator: Adobe Illustrator 22.0.1, SVG Export Plug-In . SVG Version: 6.00 Build 0)  -->
<svg version="1.1" id="Capa_1" xmlns="http://www.w3.org/2000/svg" xmlns:xlink="http://www.w3.org/1999/xlink" x="0px" y="0px"
	 viewBox="0 0 694.5 289.1" style="enable-background:new 0 0 694.5 289.1;" xml:space="preserve">
<style type="text/css">
	.st0{fill:#D0D0D2;}
	.st1{fill:#35468D;}
</style>
<path class="st0" d="M0,0.1v285.6h497.2h82.5H600c52.6,0,95.3-42.7,95.3-95.3v-2v-87.1V0.1H0z"/>
<g>
	<path class="st1" d="M218.9,166.7h-36.2v-62.8h36.2v10.9h-22.9v13.8h21.3v10.9h-21.3v16.2h22.9V166.7z"/>
	<path class="st1" d="M242.4,166.7l-18.3-48h13.7l9.3,27.4c1,3.5,1.7,6.7,1.9,9.8h0.3c0.1-2.8,0.8-6,1.9-9.8l9.2-27.4h13.7l-18.3,48
		H242.4z"/>
	<path class="st1" d="M302.8,167.6c-7.7,0-13.8-2.1-18.1-6.4c-4.4-4.3-6.5-10.3-6.5-18.1c0-8,2-14.3,6-18.7c4-4.4,9.6-6.6,16.7-6.6
		c6.8,0,12.1,1.9,15.9,5.8s5.7,9.2,5.7,16v6.4h-31c0.1,3.7,1.2,6.6,3.3,8.7s5,3.1,8.7,3.1c2.9,0,5.6-0.3,8.2-0.9s5.3-1.6,8.1-2.9
		v10.1c-2.3,1.1-4.7,2-7.3,2.6C309.7,167.3,306.5,167.6,302.8,167.6z M300.9,127.1c-2.8,0-5,0.9-6.5,2.6c-1.6,1.8-2.5,4.3-2.7,7.5
		h18.4c-0.1-3.2-0.9-5.7-2.5-7.5S303.7,127.1,300.9,127.1z"/>
	<path class="st1" d="M377.4,166.7h-13.1v-28.1c0-3.5-0.6-6.1-1.8-7.8c-1.2-1.7-3.2-2.6-5.9-2.6c-3.7,0-6.3,1.2-7.9,3.7
		s-2.4,6.5-2.4,12.2v22.6H333v-48h10l1.8,6.1h0.7c1.5-2.3,3.5-4.1,6-5.3c2.6-1.2,5.5-1.8,8.7-1.8c5.6,0,9.8,1.5,12.7,4.5
		c2.9,3,4.3,7.4,4.3,13.1V166.7z"/>
	<path class="st1" d="M411.1,157.1c2.3,0,5-0.5,8.3-1.5v9.8c-3.3,1.5-7.3,2.2-12,2.2c-5.2,0-9.1-1.3-11.5-4s-3.6-6.6-3.6-11.9v-23.2
		H386V123l7.2-4.4l3.8-10.1h8.4v10.2h13.4v9.8h-13.4v23.2c0,1.9,0.5,3.2,1.6,4.1S409.4,157.1,411.1,157.1z"/>
	<path class="st1" d="M472.7,142.6c0,7.8-2.1,13.9-6.2,18.3s-9.9,6.6-17.2,6.6c-4.6,0-8.7-1-12.2-3s-6.2-4.9-8.1-8.7
		s-2.8-8.2-2.8-13.2c0-7.8,2-14,6.1-18.3c4.1-4.4,9.9-6.5,17.3-6.5c4.6,0,8.7,1,12.2,3c3.5,2,6.2,4.9,8.1,8.6
		C471.8,133.2,472.7,137.6,472.7,142.6z M439.5,142.6c0,4.8,0.8,8.4,2.3,10.8s4.1,3.7,7.6,3.7c3.5,0,6-1.2,7.5-3.6s2.3-6,2.3-10.8
		c0-4.8-0.8-8.3-2.3-10.7c-1.5-2.4-4.1-3.6-7.6-3.6c-3.5,0-6,1.2-7.6,3.5S439.5,137.8,439.5,142.6z"/>
	<path class="st1" d="M517.1,152.5c0,4.9-1.7,8.7-5.1,11.3s-8.5,3.9-15.4,3.9c-3.5,0-6.5-0.2-8.9-0.7s-4.8-1.2-6.9-2.1V154
		c2.4,1.1,5.2,2.1,8.2,2.9s5.7,1.2,8.1,1.2c4.8,0,7.1-1.4,7.1-4.1c0-1-0.3-1.9-0.9-2.5s-1.7-1.4-3.3-2.2s-3.6-1.8-6.2-2.9
		c-3.7-1.5-6.4-3-8.1-4.3c-1.7-1.3-3-2.8-3.8-4.5c-0.8-1.7-1.2-3.8-1.2-6.3c0-4.3,1.7-7.6,5-9.9c3.3-2.3,8-3.5,14.1-3.5
		c5.8,0,11.4,1.3,16.9,3.8l-4,9.5c-2.4-1-4.7-1.9-6.7-2.5c-2.1-0.7-4.2-1-6.4-1c-3.9,0-5.8,1-5.8,3.1c0,1.2,0.6,2.2,1.9,3.1
		s4,2.1,8.2,3.8c3.8,1.5,6.5,2.9,8.3,4.3c1.7,1.3,3,2.8,3.9,4.6C516.7,148,517.1,150.1,517.1,152.5z"/>
</g>
</svg>
