<?xml version="1.0" encoding="utf-8"?>
<!-- Generator: Adobe Illustrator 22.0.1, SVG Export Plug-In . SVG Version: 6.00 Build 0)  -->
<svg version="1.1" id="Capa_1" xmlns="http://www.w3.org/2000/svg" xmlns:xlink="http://www.w3.org/1999/xlink" x="0px" y="0px"
	 viewBox="0 0 694.5 289.1" style="enable-background:new 0 0 694.5 289.1;" xml:space="preserve">
<style type="text/css">
	.st0{fill:#D0D0D2;}
</style>
<path class="st0" d="M0,0.6v285.6h497.2h82.5H600c52.6,0,95.3-42.7,95.3-95.3v-2v-87.1V0.6H0z"/>
<g>
	<path d="M59.9,170.2v-62.8h13.3v62.8H59.9z"/>
	<path d="M132.4,170.2h-13.1v-28.1c0-3.5-0.6-6.1-1.8-7.8c-1.2-1.7-3.2-2.6-5.9-2.6c-3.7,0-6.3,1.2-7.9,3.7s-2.4,6.5-2.4,12.2v22.6
		H88v-48h10l1.8,6.1h0.7c1.5-2.3,3.5-4.1,6-5.3c2.6-1.2,5.5-1.8,8.7-1.8c5.6,0,9.8,1.5,12.7,4.5c2.9,3,4.3,7.4,4.3,13.1V170.2z"/>
	<path d="M157.3,170.2l-18.3-48h13.7l9.3,27.4c1,3.5,1.7,6.7,1.9,9.8h0.3c0.1-2.8,0.8-6,1.9-9.8l9.2-27.4H189l-18.3,48H157.3z"/>
	<path d="M217.6,171.1c-7.7,0-13.8-2.1-18.1-6.4c-4.4-4.3-6.5-10.3-6.5-18.1c0-8,2-14.3,6-18.7c4-4.4,9.6-6.6,16.7-6.6
		c6.8,0,12.1,1.9,15.9,5.8s5.7,9.2,5.7,16v6.4h-31c0.1,3.7,1.2,6.6,3.3,8.7s5,3.1,8.7,3.1c2.9,0,5.6-0.3,8.2-0.9s5.3-1.6,8.1-2.9
		v10.1c-2.3,1.1-4.7,2-7.3,2.6C224.6,170.8,221.4,171.1,217.6,171.1z M215.8,130.6c-2.8,0-5,0.9-6.5,2.6c-1.6,1.8-2.5,4.3-2.7,7.5
		h18.4c-0.1-3.2-0.9-5.7-2.5-7.5S218.6,130.6,215.8,130.6z"/>
	<path d="M281.4,156c0,4.9-1.7,8.7-5.1,11.3c-3.4,2.6-8.5,3.9-15.4,3.9c-3.5,0-6.5-0.2-8.9-0.7c-2.5-0.5-4.8-1.2-6.9-2.1v-10.8
		c2.4,1.1,5.2,2.1,8.2,2.9s5.7,1.2,8.1,1.2c4.8,0,7.1-1.4,7.1-4.1c0-1-0.3-1.9-0.9-2.5c-0.6-0.6-1.7-1.4-3.3-2.2s-3.6-1.8-6.2-2.9
		c-3.7-1.5-6.4-3-8.1-4.3c-1.7-1.3-3-2.8-3.8-4.5c-0.8-1.7-1.2-3.8-1.2-6.3c0-4.3,1.7-7.6,5-9.9c3.3-2.3,8-3.5,14.1-3.5
		c5.8,0,11.4,1.3,16.9,3.8l-4,9.5c-2.4-1-4.7-1.9-6.7-2.5c-2.1-0.7-4.2-1-6.4-1c-3.9,0-5.8,1-5.8,3.1c0,1.2,0.6,2.2,1.9,3.1
		s4,2.1,8.2,3.8c3.8,1.5,6.5,2.9,8.3,4.3c1.7,1.3,3,2.8,3.9,4.6C281,151.5,281.4,153.6,281.4,156z"/>
	<path d="M311.9,160.6c2.3,0,5-0.5,8.3-1.5v9.8c-3.3,1.5-7.3,2.2-12,2.2c-5.2,0-9.1-1.3-11.5-4c-2.4-2.6-3.6-6.6-3.6-11.9V132h-6.3
		v-5.5l7.2-4.4l3.8-10.1h8.4v10.2h13.4v9.8h-13.4v23.2c0,1.9,0.5,3.2,1.6,4.1C308.8,160.2,310.2,160.6,311.9,160.6z"/>
	<path d="M329.3,109.8c0-4.3,2.4-6.4,7.1-6.4c4.8,0,7.1,2.1,7.1,6.4c0,2-0.6,3.6-1.8,4.7c-1.2,1.1-3,1.7-5.3,1.7
		C331.7,116.2,329.3,114.1,329.3,109.8z M342.9,170.2h-13.1v-48h13.1V170.2z"/>
	<path d="M398.5,122.2v6.7l-7.5,1.9c1.4,2.1,2.1,4.6,2.1,7.2c0,5.2-1.8,9.2-5.4,12.1c-3.6,2.9-8.6,4.3-15,4.3l-2.4-0.1l-1.9-0.2
		c-1.3,1-2,2.2-2,3.4c0,1.9,2.4,2.8,7.2,2.8h8.2c5.3,0,9.3,1.1,12.1,3.4c2.8,2.3,4.1,5.6,4.1,10c0,5.6-2.3,10-7,13.1
		s-11.4,4.6-20.2,4.6c-6.7,0-11.8-1.2-15.4-3.5c-3.5-2.3-5.3-5.6-5.3-9.8c0-2.9,0.9-5.3,2.7-7.3c1.8-1.9,4.5-3.3,7.9-4.2
		c-1.3-0.6-2.5-1.5-3.5-2.8c-1-1.3-1.5-2.7-1.5-4.1c0-1.8,0.5-3.4,1.6-4.6c1.1-1.2,2.6-2.4,4.6-3.6c-2.5-1.1-4.5-2.8-6-5.2
		c-1.5-2.4-2.2-5.2-2.2-8.5c0-5.2,1.7-9.3,5.1-12.2c3.4-2.9,8.3-4.3,14.6-4.3c1.3,0,2.9,0.1,4.8,0.4c1.8,0.2,3,0.4,3.5,0.5H398.5z
		 M361.4,177c0,1.8,0.9,3.2,2.6,4.3c1.7,1,4.2,1.5,7.3,1.5c4.7,0,8.4-0.6,11-1.9s4-3.1,4-5.3c0-1.8-0.8-3.1-2.4-3.7
		c-1.6-0.7-4-1-7.3-1h-6.8c-2.4,0-4.4,0.6-6,1.7C362.2,173.7,361.4,175.2,361.4,177z M366.2,137.9c0,2.6,0.6,4.7,1.8,6.2
		c1.2,1.5,3,2.3,5.4,2.3c2.5,0,4.3-0.8,5.4-2.3c1.1-1.5,1.7-3.6,1.7-6.2c0-5.8-2.4-8.7-7.1-8.7C368.6,129.2,366.2,132.1,366.2,137.9
		z"/>
	<path d="M436.9,170.2l-2.5-6.5H434c-2.2,2.8-4.5,4.7-6.8,5.8c-2.3,1.1-5.4,1.6-9.1,1.6c-4.6,0-8.2-1.3-10.9-4
		c-2.7-2.6-4-6.4-4-11.3c0-5.1,1.8-8.9,5.3-11.3c3.6-2.4,8.9-3.8,16.1-4l8.3-0.3v-2.1c0-4.9-2.5-7.3-7.5-7.3
		c-3.8,0-8.4,1.2-13.5,3.5l-4.3-8.9c5.5-2.9,11.7-4.3,18.4-4.3c6.4,0,11.4,1.4,14.8,4.2c3.4,2.8,5.2,7.1,5.2,12.8v32H436.9z
		 M433,148l-5.1,0.2c-3.8,0.1-6.6,0.8-8.5,2.1c-1.9,1.3-2.8,3.2-2.8,5.8c0,3.7,2.1,5.5,6.4,5.5c3,0,5.5-0.9,7.3-2.6
		c1.8-1.7,2.7-4.1,2.7-7V148z"/>
	<path d="M479.1,171.1c-15,0-22.4-8.2-22.4-24.6c0-8.2,2-14.4,6.1-18.7c4.1-4.3,9.9-6.5,17.5-6.5c5.6,0,10.5,1.1,15,3.3l-3.9,10.1
		c-2.1-0.8-4-1.5-5.8-2c-1.8-0.5-3.6-0.8-5.3-0.8c-6.8,0-10.2,4.8-10.2,14.5c0,9.4,3.4,14.1,10.2,14.1c2.5,0,4.9-0.3,7-1
		s4.3-1.7,6.4-3.2v11.2c-2.1,1.3-4.3,2.3-6.4,2.8C485.1,170.8,482.4,171.1,479.1,171.1z"/>
	<path d="M504.2,109.8c0-4.3,2.4-6.4,7.1-6.4c4.8,0,7.1,2.1,7.1,6.4c0,2-0.6,3.6-1.8,4.7c-1.2,1.1-3,1.7-5.3,1.7
		C506.6,116.2,504.2,114.1,504.2,109.8z M517.9,170.2h-13.1v-48h13.1V170.2z"/>
	<path d="M575.3,146.1c0,7.8-2.1,13.9-6.2,18.3s-9.9,6.6-17.2,6.6c-4.6,0-8.7-1-12.2-3s-6.2-4.9-8.1-8.7s-2.8-8.2-2.8-13.2
		c0-7.8,2-14,6.1-18.3c4.1-4.4,9.9-6.5,17.3-6.5c4.6,0,8.7,1,12.2,3c3.5,2,6.2,4.9,8.1,8.6C574.4,136.7,575.3,141.1,575.3,146.1z
		 M542.1,146.1c0,4.8,0.8,8.4,2.3,10.8c1.6,2.4,4.1,3.7,7.6,3.7c3.5,0,6-1.2,7.5-3.6c1.5-2.4,2.3-6,2.3-10.8c0-4.8-0.8-8.3-2.3-10.7
		c-1.5-2.4-4.1-3.6-7.6-3.6c-3.5,0-6,1.2-7.6,3.5S542.1,141.3,542.1,146.1z M544.9,116.9v-1.2c4.9-5.7,8.3-10,10.1-12.9h14.7v0.9
		c-1.5,1.5-4,3.7-7.6,6.6c-3.6,2.9-6.4,5.1-8.4,6.6H544.9z"/>
	<path d="M630.5,170.2h-13.1v-28.1c0-3.5-0.6-6.1-1.8-7.8c-1.2-1.7-3.2-2.6-5.9-2.6c-3.7,0-6.3,1.2-7.9,3.7s-2.4,6.5-2.4,12.2v22.6
		h-13.1v-48h10l1.8,6.1h0.7c1.5-2.3,3.5-4.1,6-5.3c2.6-1.2,5.5-1.8,8.7-1.8c5.6,0,9.8,1.5,12.7,4.5c2.9,3,4.3,7.4,4.3,13.1V170.2z"
		/>
</g>
</svg>
