<?xml version="1.0" encoding="utf-8"?>
<!-- Generator: Adobe Illustrator 15.1.0, SVG Export Plug-In . SVG Version: 6.00 Build 0)  -->
<!DOCTYPE svg PUBLIC "-//W3C//DTD SVG 1.0//EN" "http://www.w3.org/TR/2001/REC-SVG-20010904/DTD/svg10.dtd" [
	<!ENTITY ns_flows "http://ns.adobe.com/Flows/1.0/">
	<!ENTITY ns_extend "http://ns.adobe.com/Extensibility/1.0/">
	<!ENTITY ns_ai "http://ns.adobe.com/AdobeIllustrator/10.0/">
	<!ENTITY ns_graphs "http://ns.adobe.com/Graphs/1.0/">
]>
<svg version="1.0" id="Capa_1" xmlns:x="&ns_extend;" xmlns:i="&ns_ai;" xmlns:graph="&ns_graphs;"
	 xmlns="http://www.w3.org/2000/svg" xmlns:xlink="http://www.w3.org/1999/xlink" xmlns:a="http://ns.adobe.com/AdobeSVGViewerExtensions/3.0/"
	 x="0px" y="0px" width="250px" height="173px" viewBox="0 0 250 173" enable-background="new 0 0 250 173" xml:space="preserve">
<g>
	<g>
		<path fill-rule="evenodd" clip-rule="evenodd" fill="#FFFFFF" d="M76.175,110.261l0.105-0.141c0.36-0.521,0.678-1.007,0.975-1.486
			c0.333-0.539,0.652-1.09,0.949-1.63l0.038-0.072c5.756-10.58,5.484-23.272-0.714-33.132c-1.172-1.864-2.543-3.604-4.076-5.162
			c-1.57-1.602-3.327-3.035-5.221-4.258l-0.313-0.159l0.019-0.029c-0.587-0.353-1.115-0.583-1.644-0.724
			c-0.635-0.166-1.323-0.194-2.135-0.097c-0.647,0.083-1.291,0.209-2.025,0.368c0.761,1.817,1.464,3.74,2.084,5.734
			c0.139,0.428,0.288,0.926,0.448,1.487c0.065,0.22,0.126,0.436,0.186,0.645c0.058,0.021,0.115,0.039,0.162,0.064l0.022,0.007
			c0.068,0.026,0.141,0.062,0.225,0.105l0.056,0.029c0.031,0.014,0.065,0.032,0.101,0.05l0.036,0.021
			c0.009,0.007,0.02,0.015,0.033,0.018c7.131,4.299,11.167,12.258,10.529,20.774c-0.123,1.616-0.419,3.236-0.884,4.798
			c-0.475,1.596-1.12,3.14-1.914,4.587l-0.04,0.075c-0.559,1.008-1.244,2.031-2.041,3.034c-0.709,0.897-1.496,1.775-2.399,2.676
			l-0.445,0.446c-1.935,1.943-2.588,2.599-4.658,2.599c-0.47,0-1.042-0.032-1.914-0.104c-1.756-0.159-3.565-0.426-5.38-0.807
			c-0.391-0.079-0.745-0.155-1.062-0.228l-0.22-0.05c-0.296-0.072-0.578-0.137-0.847-0.206l-0.281-0.071
			c-0.279-0.072-0.587-0.155-0.921-0.244c-0.427-0.119-0.805-0.231-1.133-0.329l-0.653-0.198c-0.337-0.104-0.622-0.198-0.854-0.273
			c-0.178-0.058-0.441-0.143-0.806-0.277l-0.97-0.345c-0.246-0.09-0.442-0.162-0.607-0.223c-0.304-0.119-0.576-0.22-0.824-0.32
			l-0.744-0.304c-0.365-0.146-0.626-0.258-0.804-0.335c-0.205-0.085-0.441-0.194-0.704-0.305l-1.421-0.645l-1.409-0.652h0.084
			l-1.309-0.666c-0.257-0.137-0.506-0.266-0.742-0.398l-0.955-0.522c-0.058-0.032-0.13-0.072-0.271-0.159l-0.212-0.122
			c-0.176-0.097-0.377-0.216-0.613-0.353l-0.344-0.201c-0.177-0.104-0.333-0.198-0.47-0.281l-1.68-1.051
			c-0.19-0.123-0.387-0.248-0.604-0.396l-2.961-2.055L32,98.774l-1.272-0.954h0.003l-2.44-1.939
			c-0.677-0.559-1.38-1.167-2.147-1.851c-0.723,0.81-1.413,1.642-2.05,2.466c-0.172,0.223-0.347,0.461-0.522,0.694
			c-0.21,0.284-0.376,0.515-0.495,0.688l-0.043,0.054c-0.493,0.699-0.846,1.231-1.028,1.649c-0.05,0.111-0.084,0.212-0.108,0.31
			c9.178,8.023,19.817,13.801,30.778,16.706c2.082,0.552,4.183,1.001,6.242,1.332c2.063,0.335,4.124,0.558,6.125,0.666
			c1.074,0.058,1.825,0.068,2.376-0.051c0.59-0.121,1.171-0.433,1.891-1.001C71.939,115.463,74.248,113.016,76.175,110.261z"/>
		<path fill-rule="evenodd" clip-rule="evenodd" fill="#FFFFFF" d="M61.03,107.86c0.267,0.028,0.574,0.058,0.922,0.09
			c0.558,0.047,1.114,0.091,1.519,0.091h0.066c1.519-8.607,1.738-17.172,0.649-25.462c-0.196-1.537-0.459-3.146-0.781-4.784
			c-0.293-1.498-0.631-2.973-1.004-4.384h-0.002l-1.076-3.679h0.003l-0.245-0.728V69l-0.263-0.77h0.002l-0.066-0.194
			c-0.063-0.184-0.092-0.259-0.123-0.338l-0.205-0.558h-0.101l-0.029-0.342l-1.341-3.272c-0.254-0.572-0.531-1.159-0.815-1.749
			l-0.479-0.958l0.003-0.004c-0.404-0.788-0.698-1.317-1.062-1.728c-0.403-0.45-0.933-0.777-1.766-1.094
			c-3.051-1.188-6.253-1.908-9.523-2.135c-0.646-0.046-1.289-0.072-1.908-0.079h-0.31c-0.531,0-1.069,0.007-1.614,0.037
			c-11.79,0.572-22.368,7.473-27.636,18.009c-1.001,1.998-1.795,4.107-2.36,6.26c-0.582,2.195-0.928,4.475-1.033,6.771
			c-0.029,0.616-0.033,1.001,0.016,1.325c0.052,0.317,0.176,0.641,0.405,1.083c0.327,0.619,0.702,0.99,1.209,1.462
			c1.31-1.674,2.826-3.46,4.293-5.058c0.36-0.393,0.73-0.788,1.11-1.185c0.232-0.241,0.468-0.481,0.706-0.72
			c0.65-7.876,5.425-14.975,12.484-18.561c1.402-0.709,2.872-1.271,4.384-1.674c1.553-0.414,3.16-0.655,4.78-0.724
			c0.283-0.015,0.536-0.018,0.788-0.018c0.92,0,1.872,0.064,2.831,0.187c1.147,0.151,2.281,0.378,3.471,0.676l0.586,0.151
			c3.431,0.871,3.857,1.08,5.403,4.424c0.733,1.584,1.41,3.301,2.003,5.112c0.09,0.271,0.2,0.616,0.331,1.044
			c0.141,0.457,0.241,0.792,0.315,1.065l0.02,0.083c0.139,0.468,0.288,1.026,0.435,1.626l0.313,1.333
			c0.07,0.31,0.141,0.637,0.213,0.982h0.002l0.289,1.52c0.083,0.438,0.152,0.864,0.216,1.26l0.192,1.3
			c0.063,0.438,0.101,0.741,0.117,0.889c0.031,0.22,0.065,0.512,0.103,0.893l0.147,1.447c0.009,0.112,0.016,0.205,0.027,0.32
			l0.202,3.657c0.005,0.115,0.013,0.277,0.015,0.443l0.021,1.476c0,0.24,0,0.489,0,0.738c0,0.15-0.004,0.294-0.005,0.438
			l-0.202,4.816c-0.02,0.31-0.04,0.529-0.061,0.756l-0.082,0.89l0.006,0.068l-0.02,0.018l-0.637,5.012
			c-0.092,0.582-0.192,1.155-0.295,1.724c1.161,0.248,2.342,0.454,3.519,0.608C60.393,107.785,60.689,107.824,61.03,107.86z"/>
		<path fill-rule="evenodd" clip-rule="evenodd" fill="#FFFFFF" d="M11,97.619c-0.184,0.558-0.207,1.17-0.078,2.034l0.009,0.058
			c0.081,0.561,0.189,1.155,0.338,1.879c0.147,0.677,0.299,1.281,0.452,1.85c0.873,3.161,2.218,6.167,3.996,8.938
			c0.085,0.13,0.189,0.291,0.31,0.464c4.012,5.954,11.134,10.851,19.048,13.089c3.088,0.872,6.179,1.317,9.188,1.317
			c5.086,0,9.822-1.313,13.688-3.789c0.086-0.06,0.182-0.119,0.283-0.188l0.198-0.133c0.164-0.111,0.306-0.224,0.435-0.339
			c0.123-0.111,0.24-0.223,0.355-0.341l0.125-0.141c0.359-0.393,0.697-0.843,0.992-1.322c-0.207-0.027-0.416-0.058-0.631-0.089
			c-0.49-0.069-0.994-0.148-1.51-0.234c-2.412-0.41-4.941-0.975-7.517-1.692c-1.238,0.521-2.545,0.943-3.882,1.242
			c-1.457,0.32-2.966,0.504-4.489,0.54c-0.166,0.004-0.329,0.008-0.494,0.008c-7.901,0-15.101-3.929-19.251-10.501
			c-0.618-0.969-1.158-2.016-1.647-3.204c-0.421-1.02-0.799-2.127-1.123-3.293l-0.031-0.037l-0.079-0.385l-0.072-0.256
			c-0.205-0.806-0.459-1.835-0.54-2.285l-0.018-0.072c-0.012-0.09-0.023-0.191-0.029-0.299c-0.005-0.076-0.005-0.166-0.005-0.267
			c0.005-0.392,0.075-0.831,0.186-1.198l0.092-0.267l0.288-0.648l-0.088-0.014l0.673-0.946c0.061-0.102,0.127-0.198,0.191-0.289
			c0.031-0.05,0.058-0.09,0.083-0.122l-0.036-0.054l0.129-0.115l0.517-0.731l0.018,0.011l0.112-0.15H21.18l0.038-0.051l0.212-0.339
			l0.021,0.029l0.558-0.748l0.012,0.007l0.07-0.094l0,0l0.05-0.062v-0.13l0.152-0.064l0.608-0.81v0.061l0.266-0.316h-0.001
			l1.366-1.547l0,0l0.229-0.253l0,0l0.585-0.622c0.106-0.112,0.22-0.231,0.342-0.357l0.042-0.039
			c0.297-0.303,0.562-0.572,0.835-0.835l0.071-0.068c0.272-0.271,0.54-0.525,0.802-0.773l0.282,0.201l-0.232-0.249l0.531-0.481
			c0.27-0.253,0.443-0.407,0.538-0.49l0.063-0.061c0.15-0.13,0.371-0.331,0.664-0.584l0.074-0.058c0.2-0.176,0.286-0.248,0.38-0.327
			l0.806-0.677c0.186-0.151,0.418-0.339,0.704-0.562l0.623-0.49c0.202-0.154,0.434-0.334,0.719-0.547
			c0.027-0.021,0.059-0.043,0.088-0.068l-0.027-0.004l2.39-1.713v0.021l0.184-0.13l0.004,0.008c0.114-0.079,0.147-0.101,0.164-0.115
			l3.76-2.369l0.833-0.485h0.007c0.234-0.133,0.434-0.245,0.605-0.342l2.725-1.451c0.128-0.068,0.271-0.141,0.416-0.209l0.482-0.245
			l0,0l6.519-2.836c0.367-0.141,0.812-0.31,1.335-0.497l0.04-0.015c-0.046-0.141-0.093-0.267-0.133-0.381l-0.02-0.062
			c-0.468-1.35-1.01-2.696-1.611-4.002c-0.389-0.835-0.666-1.394-0.92-1.75c-0.061-0.076-0.119-0.147-0.176-0.213
			c-1.39,0.519-2.79,1.08-4.167,1.674c-1.589,0.692-3.149,1.415-4.629,2.164c-7.477,3.766-14.102,8.449-19.698,13.921l-3.571,3.766
			l-1.47,1.738l-0.002-0.003c-0.063,0.078-0.131,0.161-0.207,0.263l-1.423,1.828c-0.361,0.479-0.69,0.939-0.997,1.375
			c-0.357,0.508-0.672,0.972-0.951,1.386C11.641,96.33,11.206,96.992,11,97.619z"/>
	</g>
	<path fill="#FFFFFF" stroke="#009C36" stroke-width="0.25" stroke-miterlimit="10" d="M151.963,121.086"/>
	<g>
		<path fill="#FFFFFF" stroke="#009C36" stroke-width="0.25" stroke-miterlimit="10" d="M199.863,100.506"/>
		<path fill="#FFFFFF" d="M230.808,104.466l1.963,6.847h6.479l-10.391-38.129h-6.4l-10.545,38.129h6.475l2.013-6.847H230.808z
			 M225.261,83.58l0.401-0.907l0.239,0.899l3.314,14.749h-7.268L225.261,83.58z"/>
		<polygon fill="#FFFFFF" points="162.568,73.202 162.568,111.366 188.444,111.366 186.922,105.672 168.857,105.672 168.857,94.789 
			184.028,94.789 182.535,89.21 168.857,89.21 168.857,78.58 183.465,78.58 182.028,73.177 		"/>
		<path fill="#FFFFFF" d="M208.153,73.184l-1.628,5.396h9.776l1.555-5.382C214.65,73.194,211.268,73.184,208.153,73.184z"/>
		<path fill="#FFFFFF" d="M118.931,87.118v-4.226c0-6.901-3.303-10.159-10.397-10.241h-0.3l-10.089,0.046v38.215h4.122V98.019h6.273
			C116.018,97.942,118.931,94.891,118.931,87.118z M102.267,94.095V76.528l6.289,0.018c4.249,0.267,6.249,0.979,6.249,6.347v4.226
			c0,5.012-1.696,6.901-6.262,6.977h-0.309H102.267z"/>
		<path fill="#FFFFFF" d="M133.841,86.129c0.268-1.631,0.799-3.035,1.583-4.187c-0.44-0.062-0.874-0.094-1.313-0.098l-0.105-0.004
			c-2.612,0-4.941,1.077-6.072,2.79l-0.529,0.807l-0.248-3.373h-3.75v28.849h4.128V92.306
			C127.533,88.623,129.939,86.28,133.841,86.129z"/>
		<path fill="#FFFFFF" d="M157.917,92.058c0-7.06-3.396-10.346-10.696-10.346c-7.299,0-10.697,3.286-10.697,10.346v8.405
			c0,7.852,2.997,10.903,10.697,10.903c7.601,0,10.696-3.16,10.696-10.903V92.058z M153.789,100.463
			c0,5.374-1.785,7.376-6.568,7.376c-4.665,0-6.57-2.143-6.57-7.376v-8.405c0-5.598,2.518-6.725,6.57-6.725
			c4.055,0,6.568,1.127,6.568,6.725V100.463z"/>
		<polygon fill="#FFFFFF" points="205.16,83.465 199.439,103.148 192.324,73.155 185.912,73.155 196.268,111.366 203.017,111.366 
			210.949,83.465 		"/>
	</g>
</g>
</svg>
