<?xml version="1.0" encoding="utf-8"?>
<!-- Generator: Adobe Illustrator 22.0.1, SVG Export Plug-In . SVG Version: 6.00 Build 0)  -->
<svg version="1.1" id="Capa_1" xmlns="http://www.w3.org/2000/svg" xmlns:xlink="http://www.w3.org/1999/xlink" x="0px" y="0px"
	 viewBox="0 0 694.5 289.1" style="enable-background:new 0 0 694.5 289.1;" xml:space="preserve">
<style type="text/css">
	.st0{fill:#D0D0D2;}
	.st1{fill:#35468D;}
</style>
<path class="st0" d="M0,1.8v285.6h497.2h82.5H600c52.6,0,95.3-42.7,95.3-95.3v-2v-87.1V1.8H0z"/>
<g>
	<path class="st1" d="M132.9,116.7l-4.6-15h-22.9l-4.6,15H86.5l22.2-63.1H125l22.3,63.1H132.9z M125.2,90.5
		c-4.2-13.5-6.6-21.2-7.1-23c-0.5-1.8-0.9-3.2-1.1-4.2c-0.9,3.7-3.7,12.7-8.1,27.2H125.2z"/>
	<path class="st1" d="M173.6,117.5c-15,0-22.4-8.2-22.4-24.6c0-8.2,2-14.4,6.1-18.7c4.1-4.3,9.9-6.5,17.5-6.5c5.6,0,10.5,1.1,15,3.3
		l-3.9,10.1c-2.1-0.8-4-1.5-5.8-2c-1.8-0.5-3.6-0.8-5.3-0.8c-6.8,0-10.2,4.8-10.2,14.5c0,9.4,3.4,14.1,10.2,14.1c2.5,0,4.9-0.3,7-1
		c2.1-0.7,4.3-1.7,6.4-3.2V114c-2.1,1.3-4.3,2.3-6.4,2.8C179.7,117.3,176.9,117.5,173.6,117.5z"/>
	<path class="st1" d="M219.6,107.1c2.3,0,5-0.5,8.3-1.5v9.8c-3.3,1.5-7.3,2.2-12,2.2c-5.2,0-9.1-1.3-11.5-4
		c-2.4-2.6-3.6-6.6-3.6-11.9V78.5h-6.3v-5.5l7.2-4.4l3.8-10.1h8.4v10.2h13.4v9.8h-13.4v23.2c0,1.9,0.5,3.2,1.6,4.1
		C216.5,106.6,217.9,107.1,219.6,107.1z"/>
	<path class="st1" d="M237,56.2c0-4.3,2.4-6.4,7.1-6.4c4.8,0,7.1,2.1,7.1,6.4c0,2-0.6,3.6-1.8,4.7c-1.2,1.1-3,1.7-5.3,1.7
		C239.4,62.7,237,60.5,237,56.2z M250.7,116.7h-13.1v-48h13.1V116.7z"/>
	<path class="st1" d="M275.9,116.7l-18.3-48h13.7l9.3,27.4c1,3.5,1.7,6.7,1.9,9.8h0.3c0.1-2.8,0.8-6,1.9-9.8l9.2-27.4h13.7l-18.3,48
		H275.9z"/>
	<path class="st1" d="M313.9,56.2c0-4.3,2.4-6.4,7.1-6.4c4.8,0,7.1,2.1,7.1,6.4c0,2-0.6,3.6-1.8,4.7c-1.2,1.1-3,1.7-5.3,1.7
		C316.3,62.7,313.9,60.5,313.9,56.2z M327.6,116.7h-13.1v-48h13.1V116.7z"/>
	<path class="st1" d="M356.5,117.5c-5.6,0-10.1-2.2-13.3-6.6s-4.8-10.5-4.8-18.2c0-7.9,1.6-14,4.9-18.4c3.3-4.4,7.8-6.6,13.6-6.6
		c6,0,10.7,2.3,13.8,7h0.4c-0.7-3.6-1-6.8-1-9.6V49.8h13.1v66.9h-10.1l-2.5-6.2h-0.6C367.2,115.2,362.7,117.5,356.5,117.5z
		 M361.1,107.1c3.4,0,5.8-1,7.4-2.9c1.6-1.9,2.4-5.3,2.6-9.9v-1.4c0-5.2-0.8-8.9-2.4-11.1s-4.2-3.4-7.8-3.4c-2.9,0-5.2,1.2-6.8,3.7
		c-1.6,2.5-2.4,6.1-2.4,10.8s0.8,8.3,2.4,10.6S358.1,107.1,361.1,107.1z"/>
	<path class="st1" d="M427.5,116.7l-2.5-6.5h-0.3c-2.2,2.8-4.5,4.7-6.8,5.8c-2.3,1.1-5.4,1.6-9.1,1.6c-4.6,0-8.2-1.3-10.9-4
		c-2.7-2.6-4-6.4-4-11.3c0-5.1,1.8-8.9,5.3-11.3c3.6-2.4,8.9-3.8,16.1-4l8.3-0.3v-2.1c0-4.9-2.5-7.3-7.5-7.3
		c-3.8,0-8.4,1.2-13.5,3.5l-4.3-8.9c5.5-2.9,11.7-4.3,18.4-4.3c6.4,0,11.4,1.4,14.8,4.2c3.4,2.8,5.2,7.1,5.2,12.8v32H427.5z
		 M423.7,94.4l-5.1,0.2c-3.8,0.1-6.6,0.8-8.5,2.1c-1.9,1.3-2.8,3.2-2.8,5.8c0,3.7,2.1,5.5,6.4,5.5c3,0,5.5-0.9,7.3-2.6
		c1.8-1.7,2.7-4.1,2.7-7V94.4z"/>
	<path class="st1" d="M465.4,117.5c-5.6,0-10.1-2.2-13.3-6.6s-4.8-10.5-4.8-18.2c0-7.9,1.6-14,4.9-18.4c3.3-4.4,7.8-6.6,13.6-6.6
		c6,0,10.7,2.3,13.8,7h0.4c-0.7-3.6-1-6.8-1-9.6V49.8h13.1v66.9h-10.1l-2.5-6.2H479C476,115.2,471.5,117.5,465.4,117.5z M470,107.1
		c3.4,0,5.8-1,7.4-2.9c1.6-1.9,2.4-5.3,2.6-9.9v-1.4c0-5.2-0.8-8.9-2.4-11.1s-4.2-3.4-7.8-3.4c-2.9,0-5.2,1.2-6.8,3.7
		c-1.6,2.5-2.4,6.1-2.4,10.8s0.8,8.3,2.4,10.6S467,107.1,470,107.1z"/>
	<path class="st1" d="M527.6,117.5c-7.7,0-13.8-2.1-18.1-6.4c-4.4-4.3-6.5-10.3-6.5-18.1c0-8,2-14.3,6-18.7c4-4.4,9.6-6.6,16.7-6.6
		c6.8,0,12.1,1.9,15.9,5.8s5.7,9.2,5.7,16v6.4h-31c0.1,3.7,1.2,6.6,3.3,8.7c2.1,2.1,5,3.1,8.7,3.1c2.9,0,5.6-0.3,8.2-0.9
		s5.3-1.6,8.1-2.9v10.1c-2.3,1.1-4.7,2-7.3,2.6C534.5,117.2,531.4,117.5,527.6,117.5z M525.8,77c-2.8,0-5,0.9-6.5,2.6
		c-1.6,1.8-2.5,4.3-2.7,7.5h18.4c-0.1-3.2-0.9-5.7-2.5-7.5S528.5,77,525.8,77z"/>
	<path class="st1" d="M591.4,102.4c0,4.9-1.7,8.7-5.1,11.3c-3.4,2.6-8.5,3.9-15.4,3.9c-3.5,0-6.5-0.2-8.9-0.7
		c-2.5-0.5-4.8-1.2-6.9-2.1v-10.8c2.4,1.1,5.2,2.1,8.2,2.9s5.7,1.2,8.1,1.2c4.8,0,7.1-1.4,7.1-4.1c0-1-0.3-1.9-0.9-2.5
		c-0.6-0.6-1.7-1.4-3.3-2.2s-3.6-1.8-6.2-2.9c-3.7-1.5-6.4-3-8.1-4.3c-1.7-1.3-3-2.8-3.8-4.5c-0.8-1.7-1.2-3.8-1.2-6.3
		c0-4.3,1.7-7.6,5-9.9c3.3-2.3,8-3.5,14.1-3.5c5.8,0,11.4,1.3,16.9,3.8l-4,9.5c-2.4-1-4.7-1.9-6.7-2.5c-2.1-0.7-4.2-1-6.4-1
		c-3.9,0-5.8,1-5.8,3.1c0,1.2,0.6,2.2,1.9,3.1s4,2.1,8.2,3.8c3.8,1.5,6.5,2.9,8.3,4.3c1.7,1.3,3,2.8,3.9,4.6
		C591,98,591.4,100,591.4,102.4z"/>
	<path class="st1" d="M81.9,223.1c-5.6,0-10.1-2.2-13.3-6.6s-4.8-10.5-4.8-18.2c0-7.9,1.6-14,4.9-18.4c3.3-4.4,7.8-6.6,13.6-6.6
		c6,0,10.7,2.3,13.8,7h0.4c-0.7-3.6-1-6.8-1-9.6v-15.4h13.1v66.9H98.6l-2.5-6.2h-0.6C92.5,220.8,88,223.1,81.9,223.1z M86.5,212.7
		c3.4,0,5.8-1,7.4-2.9c1.6-1.9,2.4-5.3,2.6-9.9v-1.4c0-5.2-0.8-8.9-2.4-11.1s-4.2-3.4-7.8-3.4c-2.9,0-5.2,1.2-6.8,3.7
		c-1.6,2.5-2.4,6.1-2.4,10.8s0.8,8.3,2.4,10.6S83.5,212.7,86.5,212.7z"/>
	<path class="st1" d="M144.1,223.1c-7.7,0-13.8-2.1-18.1-6.4c-4.4-4.3-6.5-10.3-6.5-18.1c0-8,2-14.3,6-18.7c4-4.4,9.6-6.6,16.7-6.6
		c6.8,0,12.1,1.9,15.9,5.8s5.7,9.2,5.7,16v6.4h-31c0.1,3.7,1.2,6.6,3.3,8.7c2.1,2.1,5,3.1,8.7,3.1c2.9,0,5.6-0.3,8.2-0.9
		s5.3-1.6,8.1-2.9v10.1c-2.3,1.1-4.7,2-7.3,2.6C151,222.8,147.9,223.1,144.1,223.1z M142.3,182.6c-2.8,0-5,0.9-6.5,2.6
		c-1.6,1.8-2.5,4.3-2.7,7.5h18.4c-0.1-3.2-0.9-5.7-2.5-7.5S145,182.6,142.3,182.6z"/>
	<path class="st1" d="M234.4,222.3h-36.2v-62.8h36.2v10.9h-22.9v13.8h21.3v10.9h-21.3v16.2h22.9V222.3z"/>
	<path class="st1" d="M256.3,197.7l-15.5-23.5h14.9l9.3,15.3l9.4-15.3h14.9l-15.6,23.5l16.4,24.5h-14.9l-10.1-16.5l-10.1,16.5h-14.9
		L256.3,197.7z"/>
	<path class="st1" d="M317.6,212.7c2.3,0,5-0.5,8.3-1.5v9.8c-3.3,1.5-7.3,2.2-12,2.2c-5.2,0-9.1-1.3-11.5-4
		c-2.4-2.6-3.6-6.6-3.6-11.9v-23.2h-6.3v-5.5l7.2-4.4l3.8-10.1h8.4v10.2h13.4v9.8h-13.4v23.2c0,1.9,0.5,3.2,1.6,4.1
		C314.5,212.2,315.9,212.7,317.6,212.7z"/>
	<path class="st1" d="M357.3,223.1c-7.7,0-13.8-2.1-18.1-6.4c-4.4-4.3-6.5-10.3-6.5-18.1c0-8,2-14.3,6-18.7c4-4.4,9.6-6.6,16.7-6.6
		c6.8,0,12.1,1.9,15.9,5.8s5.7,9.2,5.7,16v6.4h-31c0.1,3.7,1.2,6.6,3.3,8.7c2.1,2.1,5,3.1,8.7,3.1c2.9,0,5.6-0.3,8.2-0.9
		s5.3-1.6,8.1-2.9v10.1c-2.3,1.1-4.7,2-7.3,2.6C364.3,222.8,361.1,223.1,357.3,223.1z M355.5,182.6c-2.8,0-5,0.9-6.5,2.6
		c-1.6,1.8-2.5,4.3-2.7,7.5h18.4c-0.1-3.2-0.9-5.7-2.5-7.5S358.3,182.6,355.5,182.6z"/>
	<path class="st1" d="M431.9,222.3h-13.1v-28.1c0-3.5-0.6-6.1-1.8-7.8c-1.2-1.7-3.2-2.6-5.9-2.6c-3.7,0-6.3,1.2-7.9,3.7
		s-2.4,6.5-2.4,12.2v22.6h-13.1v-48h10l1.8,6.1h0.7c1.5-2.3,3.5-4.1,6-5.3c2.6-1.2,5.5-1.8,8.7-1.8c5.6,0,9.8,1.5,12.7,4.5
		c2.9,3,4.3,7.4,4.3,13.1V222.3z"/>
	<path class="st1" d="M478.9,208c0,4.9-1.7,8.7-5.1,11.3c-3.4,2.6-8.5,3.9-15.4,3.9c-3.5,0-6.5-0.2-8.9-0.7
		c-2.5-0.5-4.8-1.2-6.9-2.1v-10.8c2.4,1.1,5.2,2.1,8.2,2.9s5.7,1.2,8.1,1.2c4.8,0,7.1-1.4,7.1-4.1c0-1-0.3-1.9-0.9-2.5
		c-0.6-0.6-1.7-1.4-3.3-2.2s-3.6-1.8-6.2-2.9c-3.7-1.5-6.4-3-8.1-4.3c-1.7-1.3-3-2.8-3.8-4.5c-0.8-1.7-1.2-3.8-1.2-6.3
		c0-4.3,1.7-7.6,5-9.9c3.3-2.3,8-3.5,14.1-3.5c5.8,0,11.4,1.3,16.9,3.8l-4,9.5c-2.4-1-4.7-1.9-6.7-2.5c-2.1-0.7-4.2-1-6.4-1
		c-3.9,0-5.8,1-5.8,3.1c0,1.2,0.6,2.2,1.9,3.1s4,2.1,8.2,3.8c3.8,1.5,6.5,2.9,8.3,4.3c1.7,1.3,3,2.8,3.9,4.6
		C478.5,203.6,478.9,205.6,478.9,208z"/>
	<path class="st1" d="M488.6,161.8c0-4.3,2.4-6.4,7.1-6.4c4.8,0,7.1,2.1,7.1,6.4c0,2-0.6,3.6-1.8,4.7c-1.2,1.1-3,1.7-5.3,1.7
		C491,168.3,488.6,166.1,488.6,161.8z M502.3,222.3h-13.1v-48h13.1V222.3z"/>
	<path class="st1" d="M559.7,198.2c0,7.8-2.1,13.9-6.2,18.3c-4.1,4.4-9.9,6.6-17.2,6.6c-4.6,0-8.7-1-12.2-3s-6.2-4.9-8.1-8.7
		s-2.8-8.2-2.8-13.2c0-7.8,2-14,6.1-18.3c4.1-4.4,9.9-6.5,17.3-6.5c4.6,0,8.7,1,12.2,3c3.5,2,6.2,4.9,8.1,8.6
		C558.7,188.7,559.7,193.1,559.7,198.2z M526.4,198.2c0,4.8,0.8,8.4,2.3,10.8c1.6,2.4,4.1,3.7,7.6,3.7c3.5,0,6-1.2,7.5-3.6
		c1.5-2.4,2.3-6,2.3-10.8c0-4.8-0.8-8.3-2.3-10.7c-1.5-2.4-4.1-3.6-7.6-3.6c-3.5,0-6,1.2-7.6,3.5S526.4,193.4,526.4,198.2z
		 M529.2,168.9v-1.2c4.9-5.7,8.3-10,10.1-12.9H554v0.9c-1.5,1.5-4,3.7-7.6,6.6c-3.6,2.9-6.4,5.1-8.4,6.6H529.2z"/>
	<path class="st1" d="M614.8,222.3h-13.1v-28.1c0-3.5-0.6-6.1-1.8-7.8c-1.2-1.7-3.2-2.6-5.9-2.6c-3.7,0-6.3,1.2-7.9,3.7
		s-2.4,6.5-2.4,12.2v22.6h-13.1v-48h10l1.8,6.1h0.7c1.5-2.3,3.5-4.1,6-5.3c2.6-1.2,5.5-1.8,8.7-1.8c5.6,0,9.8,1.5,12.7,4.5
		c2.9,3,4.3,7.4,4.3,13.1V222.3z"/>
</g>
</svg>
