<?xml version="1.0" encoding="utf-8"?>
<!-- Generator: Adobe Illustrator 22.0.1, SVG Export Plug-In . SVG Version: 6.00 Build 0)  -->
<svg version="1.1" id="Capa_1" xmlns="http://www.w3.org/2000/svg" xmlns:xlink="http://www.w3.org/1999/xlink" x="0px" y="0px"
	 viewBox="0 0 350 150" style="enable-background:new 0 0 350 150;" xml:space="preserve">
<style type="text/css">
	.st0{fill:#A0A0A0;}
	.st1{fill:#20358B;}
	.st2{fill:#00774C;}
</style>
<g transform="translate(0.000000,1006.000000) scale(0.100000,-0.100000)">
	<path class="st0" d="M1683,9934.8c-58-3.9-110.5-18.4-162.7-45c-110.1-56.2-189.4-158.2-217.6-279.3c-5.4-23.3-8.8-51.1-9-72.5
		c-0.1-20,0-21,3.7-28.6c4.1-8.6,16.6-23.2,19.6-23.2c1.1,0,10.9,10.8,21.8,23.9c11,13,28.7,33.3,39.4,44.9
		c11.9,12.8,19.7,22.5,20.2,24.9c0.4,2.1,1.4,8.7,2.2,14.8c11.3,80.1,58.5,154,127,199c57.3,37.6,124.8,52.5,192.8,42.7
		c18.6-2.8,63-13.5,74.2-18c15.5-6.4,22.5-14.4,34.8-40.3c25.3-52.9,44.6-118.8,55.1-186.8c7.5-48.9,8.4-63.8,8.4-130.5
		c0-72.2-1.9-97.9-11.9-161.3c-2.1-12.8-2.6-19.5-1.7-20.4c3.5-3.5,70.1-13.7,89.8-13.7c3,0,4.6,5.1,8,27.2
		c28,180.8,10.2,362.1-50.3,513.8c-10.6,26.5-25.5,58.8-33.3,71.9c-11.2,19.2-19.3,24.7-53.4,36.2c-34,11.5-67.2,17.8-106.7,20.6
		C1711.3,9936.5,1707.2,9936.5,1683,9934.8z"/>
	<path class="st0" d="M1967.5,9837.5c-13.9-2.5-17.3-3.9-17.3-7.5c0-1.5,3-10.8,6.8-20.4s10.4-28.4,14.6-41.7
		c13.5-41.8,10.9-37,23.5-44.6c33-20.2,62.3-48.7,84.4-82.4c46.8-71.5,58.3-163.5,30.8-246.2c-15.6-46.9-39.8-83.5-83.5-126.8
		c-29-28.6-30.5-29.3-57.2-30c-14.6-0.4-26.1,0.3-42.3,2.3c-142.9,18.2-289,87.8-418.9,199.5c-12,10.4-14.2,10.2-23.9-0.8
		c-9.8-11.2-33.6-42.9-39.2-52.5c-7.2-12-7.2-13.8-0.1-20.4c10.6-10.1,53.7-43.9,75.9-59.8c132.4-94.4,276-152,425-170.4
		c13.1-1.5,29.8-2.5,48.3-2.5h28.3l8.4,4.6c12.3,6.6,30.7,22,51.6,43.1c36.7,36.7,62.7,73.3,85.7,120.8
		c32.6,67.1,46.5,135.7,42.5,208.6c-5.2,98.2-44.6,188.8-111.6,257.8c-26.8,27.5-58.5,52.9-80.2,63.8
		C2004.8,9839.4,1988.3,9841.2,1967.5,9837.5z"/>
	<path class="st0" d="M1759.7,9776.3c-113.4-45.7-214.6-107.6-301.7-184.2c-14.2-12.6-66.7-65-77.6-77.6
		c-33-38.2-67.4-85.1-77.5-105.6c-7.6-15.6-5.4-39.8,8.1-87.7c13.4-47.2,41.7-102.2,71.1-138.4c11-13.7,39.8-42.8,49.6-50.4
		c2.3-1.7,5.7-4.6,7.6-6.4c5.5-5,32.6-24.2,46.9-33.1c82.2-51.5,187.7-77.9,274.8-68.6c52.1,5.5,101.9,22.1,138.6,46.3
		c15.3,9.9,32.6,28.6,32.6,35.1c0,2.5-0.6,2.6-24.2,6.5c-22.9,3.6-58.1,11-82.6,17.3l-19.1,5l-10.9-4.3
		c-35.5-13.5-82.7-20.7-117.4-18c-43.6,3.6-78,12.6-112,29.5c-72.9,36.5-121.9,95.7-145.4,175.4c-5.4,18.8-10.6,40.6-11.5,48.3
		c-1.5,14.4,4.6,29,22.5,54.1c7.5,10.2,24.2,31.9,27.5,35.5c0.8,0.8,5.4,6.2,10.4,11.9c12,13.8,44.9,46.8,59.4,59.5
		c6.5,5.7,12,10.5,12.4,10.9c1.9,2.2,30.4,24.6,44.2,34.8c64.6,47.9,145,91.3,225.8,121.9c7.6,2.9,14.5,5.9,15.5,6.8
		c1.1,1.1,1,3.5-1,9.1c-9,27.8-28.3,70-34.1,74.6c-1.9,1.5-3.9,2.8-4.4,2.8C1787,9787.2,1774.4,9782.2,1759.7,9776.3z"/>
	<path class="st0" d="M1259.8,8813.7v-127h86.9h86.9l-1.1,4.6c-0.6,2.3-2.3,9.1-3.9,14.8s-3.6,13-4.4,16.3l-1.5,5.8h-58.5h-58.7
		v33.8v33.8h49.6h49.6l-4,15.6c-2.2,8.4-4.7,17.5-5.5,20l-1.5,4.4h-44h-44v33.1v33.1h47.8c44.7,0,47.6,0.1,46.9,2.5
		c-0.4,1.2-2.6,9.9-5.1,19.3l-4.4,16.8h-65.5h-65.3V8813.7z"/>
	<path class="st0" d="M1413.1,8940.1c0-0.3,8-30.2,18-66.6c9.8-36.3,25.3-93.1,34.2-126.1l16.3-60.1h23.2h23.3l27.3,96
		c15.1,52.7,27.5,96.4,27.5,97.1c0,0.6-9.3,1-20.4,1H1542l-18.5-64.2c-10.2-35.3-19.2-64.1-19.9-63.8s-5.4,18.1-10.5,39.8
		c-5.1,21.5-15.1,63.1-22,92.4s-12.6,53.7-12.6,54.3c0,0.6-10.2,1-22.8,1S1413.1,8940.5,1413.1,8940.1z"/>
	<path class="st1" d="M1555.6,8930.8c-1.5-5.5-4-14.2-5.5-19.3l-2.9-9.4h34.4c31.5,0,34.4,0.1,35.1,2.5c0.4,1.2,2.6,9.3,5,17.5
		c2.3,8.4,4.6,16,4.8,17c0.4,1.2-6.9,1.7-33.7,1.7h-34.2L1555.6,8930.8z"/>
	<path class="st0" d="M1652.7,8939.1c-0.6-1.8-3.9-13.8-20.6-74.3c-4.8-17.8-13-47.4-18.1-65.6c-5.1-18.2-13.3-47.8-18.1-65.6
		c-5-17.8-9.9-35.3-10.9-39.1l-1.9-6.5l23.1,0.3l23.1,0.4l6.4,21.4l6.2,21.4l33.1,0.4l33,0.3l6.2-21.7l6.2-21.8l23.1-0.4
		c18.2-0.3,23.1,0,22.5,1.4c-0.3,1-15.6,56.8-33.8,124c-18.4,67.2-33.6,123.3-34,124.7c-0.7,2.1-3,2.3-22.8,2.3
		C1658.9,8940.8,1653.1,8940.3,1652.7,8939.1z M1686.3,8821.7c5.4-24,9.8-44,9.8-44.5s-9.7-0.8-21.5-0.8h-21.5l0.7,3.2
		c0.4,1.7,5,21.7,9.9,44.5c10.6,48.1,10.1,46.3,11.7,43.5C1676,8866.5,1681,8845.9,1686.3,8821.7z"/>
	<path class="st2" d="M1843.2,8939.2c-29.8-4.4-47.4-19.6-53.9-46.9c-1.2-5.7-2.1-15.9-2.1-28.4v-19.7h-3.2c-6.4,0-7.9-3.7-7.9-19.6
		c0-15.6,1.4-19.1,8-19.1h3v-57c0-53.6,0.1-57.3,2.5-59.4c3.9-3.6,30.7-3.5,33.8,0.1c2.1,2.3,2.3,8.4,2.3,59.4v56.9h13.5
		c18,0,18.2,0.3,18.2,18.9c0,12.6-0.3,13.9-3.2,16.7c-2.8,2.6-4.8,3-15.9,3h-12.7v15.7c0,33.1,4.7,41,25.5,43.1
		c13.8,1.4,14.5,2.2,14.5,19.2C1866,8941.4,1864.9,8942.4,1843.2,8939.2z"/>
	<path class="st2" d="M2170.7,8906.5c-1.8-1.9-2.3-5.4-2.3-14.5v-12h-5.2c-8.6,0-9.9-2.6-9.9-18.9c0-15.7,1.4-18.4,10.1-18.4h5
		l0.4-59.7c0.6-59,0.6-59.9,3.7-67.9c6.6-16.7,19.6-24.6,44.6-27.5c18.5-2.1,19.1-1.7,19.1,18.4c0,17.1-0.8,18.5-11.7,20
		c-10.2,1.5-14.1,4-15.7,10.1c-1,3-1.5,25-1.5,55.9v50.7h14.2c18.8,0,18.9,0.1,18.9,18.9c0,18.1-0.3,18.4-19.1,18.4h-14.1v12.2
		c0,16.4-0.4,16.8-19.6,16.8C2175.2,8909,2172.7,8908.6,2170.7,8906.5z"/>
	<path class="st2" d="M1857.4,8879.7c-1.8-2.8,0.3-10.9,25.1-97.6l27.2-94.7l17.8-0.4l17.8-0.4l27.1,95c24.7,87.1,26.8,95.3,25,98.2
		c-1.9,2.9-2.8,3-19.6,3h-17.5l-15.6-54.8c-8.6-30.2-16-55.8-16.6-56.8c-0.7-1.5-17.1,53.4-32,107.2l-1.2,4.4h-17.7
		C1860.5,8882.8,1859.4,8882.6,1857.4,8879.7z"/>
	<path class="st2" d="M2046.6,8880.6c-17.1-4.1-32.6-15.5-39.5-29.1c-7.2-13.8-7.9-20.2-7.9-67.4c0-32.4,0.6-46.4,1.9-52.5
		c7.6-33.3,29.3-47.6,71.8-47.6c43.1,0,63.8,13,71.3,44.6c2.5,10.5,2.8,26,0.4,28.3s-33.4,2.3-35.2,0c-0.8-1-1.8-5.5-2.3-10.1
		c-1.4-11.9-4.6-17.3-12.4-21.3c-5.8-2.9-8.7-3.5-21.4-3.5c-12.8,0-15.5,0.3-21.5,3.3c-9.5,4.8-12.2,10.5-12.8,27.9l-0.6,13.5h52.3
		c38.8,0,52.7,0.4,54,1.7c1.2,1.2,1.7,9.5,1.7,28.7c0,22.8-0.4,29-2.8,38.1c-6.2,24.3-21.3,38.9-46.3,45.4
		C2086.9,8883.3,2057.6,8883.3,2046.6,8880.6z M2093.8,8842.3c8.4-4.1,12.4-12.2,13.4-27.2l0.8-11h-34.9h-34.8l0.6,12.8
		c0.6,13.9,2.8,19.7,9.5,24.7C2056.3,8847.6,2082.5,8847.8,2093.8,8842.3z"/>
</g>
</svg>
